<svg width="50" height="42" viewBox="0 0 50 42" fill="none" xmlns="http://www.w3.org/2000/svg">
<rect width="50" height="42" rx="4" fill="white"/>
<path d="M16.6705 24.3636V36H15.0568L9.14205 27.4659H9.03409V36H7.27841V24.3636H8.90341L14.8239 32.9091H14.9318V24.3636H16.6705ZM22.4815 36.1648C21.7012 36.1648 21.0289 36.0227 20.4645 35.7386C19.9039 35.4545 19.4721 35.0682 19.169 34.5795C18.866 34.0871 18.7145 33.5303 18.7145 32.9091C18.7145 32.4356 18.813 32.0152 19.0099 31.6477C19.2069 31.2765 19.4815 30.9337 19.8338 30.6193C20.1861 30.3049 20.5933 29.9886 21.0554 29.6705L22.9304 28.3466C23.2486 28.1383 23.4967 27.9186 23.6747 27.6875C23.8527 27.4527 23.9418 27.1629 23.9418 26.8182C23.9418 26.5455 23.8243 26.2841 23.5895 26.0341C23.3546 25.7841 23.0402 25.6591 22.6463 25.6591C22.3736 25.6591 22.133 25.7254 21.9247 25.858C21.7202 25.9905 21.5592 26.161 21.4418 26.3693C21.3281 26.5739 21.2713 26.7898 21.2713 27.017C21.2713 27.2822 21.3433 27.5492 21.4872 27.8182C21.6349 28.0871 21.8243 28.3655 22.0554 28.6534C22.2865 28.9375 22.5289 29.233 22.7827 29.5398L28.1861 36H26.2656L21.794 30.7443C21.419 30.3011 21.0705 29.8845 20.7486 29.4943C20.4266 29.1004 20.1652 28.7027 19.9645 28.3011C19.7675 27.8958 19.669 27.4583 19.669 26.9886C19.669 26.4545 19.7902 25.9811 20.0327 25.5682C20.2789 25.1515 20.6217 24.8258 21.0611 24.5909C21.5005 24.3561 22.0156 24.2386 22.6065 24.2386C23.205 24.2386 23.7183 24.3561 24.1463 24.5909C24.5781 24.822 24.9096 25.1307 25.1406 25.517C25.3755 25.8996 25.4929 26.3182 25.4929 26.7727C25.4929 27.3258 25.3546 27.8144 25.0781 28.2386C24.8054 28.6591 24.4285 29.0455 23.9474 29.3977L21.6122 31.1193C21.1577 31.4527 20.8414 31.7822 20.6634 32.108C20.4891 32.4299 20.402 32.6818 20.402 32.8636C20.402 33.197 20.4872 33.5057 20.6577 33.7898C20.8319 34.0739 21.0743 34.3011 21.3849 34.4716C21.6993 34.642 22.0668 34.7273 22.4872 34.7273C22.919 34.7273 23.3395 34.6345 23.7486 34.4489C24.1615 34.2595 24.5346 33.9886 24.8679 33.6364C25.205 33.2841 25.4721 32.8617 25.669 32.3693C25.866 31.8769 25.9645 31.3258 25.9645 30.7159H27.4986C27.4986 31.4659 27.4134 32.1004 27.2429 32.6193C27.0724 33.1345 26.866 33.5549 26.6236 33.8807C26.3849 34.2027 26.1596 34.4545 25.9474 34.6364C25.8793 34.697 25.8149 34.7576 25.7543 34.8182C25.6937 34.8788 25.6293 34.9394 25.5611 35C25.1671 35.3977 24.6899 35.6913 24.1293 35.8807C23.5724 36.0701 23.0232 36.1648 22.4815 36.1648ZM31.2912 36L28.0639 24.3636H29.9105L32.1776 33.375H32.2855L34.6435 24.3636H36.473L38.831 33.3807H38.9389L41.2003 24.3636H43.0526L39.8196 36H38.0526L35.6037 27.2841H35.5128L33.0639 36H31.2912Z" fill="#23272F"/>
<path d="M10.9375 19.2727H39.0625C39.3111 19.2727 39.5496 19.3637 39.7254 19.5257C39.9012 19.6876 40 19.9073 40 20.1364C40 20.3654 39.9012 20.5851 39.7254 20.747C39.5496 20.909 39.3111 21 39.0625 21H10.9375C10.6889 21 10.4504 20.909 10.2746 20.747C10.0988 20.5851 10 20.3654 10 20.1364C10 19.9073 10.0988 19.6876 10.2746 19.5257C10.4504 19.3637 10.6889 19.2727 10.9375 19.2727V19.2727ZM14.7288 16.6818C14.9589 14.3187 16.1406 12.1204 18.0414 10.5195C19.9422 8.91848 22.4245 8.03067 25 8.03067C27.5755 8.03067 30.0578 8.91848 31.9586 10.5195C33.8594 12.1204 35.0411 14.3187 35.2712 16.6818H33.3869C33.1596 14.7791 32.1781 13.0205 30.6305 11.7431C29.0829 10.4657 27.078 9.75927 25 9.75927C22.922 9.75927 20.9171 10.4657 19.3695 11.7431C17.8219 13.0205 16.8404 14.7791 16.6131 16.6818H14.7288V16.6818ZM25 2C25.2486 2 25.4871 2.09099 25.6629 2.25295C25.8387 2.41492 25.9375 2.63459 25.9375 2.86364V5.45455C25.9375 5.6836 25.8387 5.90327 25.6629 6.06523C25.4871 6.22719 25.2486 6.31818 25 6.31818C24.7514 6.31818 24.5129 6.22719 24.3371 6.06523C24.1613 5.90327 24.0625 5.6836 24.0625 5.45455V2.86364C24.0625 2.63459 24.1613 2.41492 24.3371 2.25295C24.5129 2.09099 24.7514 2 25 2V2ZM36.9325 6.55309C37.1083 6.71505 37.207 6.93468 37.207 7.16368C37.207 7.39269 37.1083 7.61232 36.9325 7.77427L34.945 9.60518C34.8585 9.68767 34.7551 9.75346 34.6407 9.79872C34.5263 9.84399 34.4033 9.86781 34.2788 9.86881C34.1543 9.8698 34.0309 9.84795 33.9157 9.80453C33.8005 9.7611 33.6958 9.69698 33.6078 9.61589C33.5197 9.5348 33.4501 9.43837 33.403 9.33223C33.3558 9.2261 33.3321 9.11237 33.3332 8.9977C33.3343 8.88303 33.3601 8.7697 33.4093 8.66433C33.4584 8.55897 33.5298 8.46367 33.6194 8.384L35.6069 6.55309C35.7827 6.39118 36.0211 6.30023 36.2697 6.30023C36.5183 6.30023 36.7567 6.39118 36.9325 6.55309V6.55309ZM13.0675 6.55309C13.2433 6.39118 13.4817 6.30023 13.7303 6.30023C13.9789 6.30023 14.2173 6.39118 14.3931 6.55309L16.3806 8.384C16.4702 8.46367 16.5416 8.55897 16.5907 8.66433C16.6399 8.7697 16.6657 8.88303 16.6668 8.9977C16.6679 9.11237 16.6442 9.2261 16.597 9.33223C16.5499 9.43837 16.4803 9.5348 16.3922 9.61589C16.3042 9.69698 16.1995 9.7611 16.0843 9.80453C15.9691 9.84795 15.8457 9.8698 15.7212 9.86881C15.5967 9.86781 15.4737 9.84399 15.3593 9.79872C15.2449 9.75346 15.1415 9.68767 15.055 9.60518L13.0675 7.77427C12.8917 7.61232 12.793 7.39269 12.793 7.16368C12.793 6.93468 12.8917 6.71505 13.0675 6.55309V6.55309Z" fill="#6F5B57"/>
</svg>
